<?xml version="1.0" standalone="no"?>
<!DOCTYPE svg PUBLIC "-//W3C//DTD SVG 20010904//EN"
 "http://www.w3.org/TR/2001/REC-SVG-20010904/DTD/svg10.dtd">
<svg version="1.0" xmlns="http://www.w3.org/2000/svg"
 width="505.000000pt" height="505.000000pt" viewBox="0 0 505.000000 505.000000"
 preserveAspectRatio="xMidYMid meet">
<metadata>
Created by potrace 1.14, written by Peter Selinger 2001-2017
</metadata>
<g transform="translate(0.000000,505.000000) scale(0.100000,-0.100000)"
fill="#000000" stroke="none">
<path d="M2003 4136 c-20 -40 -20 -46 -6 -57 13 -11 14 -28 9 -94 -3 -44 -6
-96 -6 -117 0 -38 -6 -43 -109 -101 -19 -10 -64 -42 -100 -71 -36 -28 -83 -63
-103 -76 -21 -14 -38 -28 -38 -32 0 -5 -8 -8 -19 -8 -16 0 -56 21 -231 123
-99 58 -116 67 -130 74 -29 13 -100 64 -99 71 3 20 -2 32 -15 32 -11 0 -12
-35 -9 -190 l5 -190 -29 -38 c-16 -20 -53 -74 -83 -118 -39 -58 -60 -81 -72
-78 -10 1 -18 -1 -18 -5 0 -11 36 -21 75 -21 59 -1 64 -18 35 -116 -13 -44 0
-91 22 -78 31 20 -13 -24 -95 -93 -51 -42 -97 -82 -103 -88 -6 -5 -33 -28 -59
-50 -26 -22 -63 -54 -82 -72 -18 -18 -36 -33 -38 -33 -3 0 -13 -8 -23 -17 -18
-18 -86 -73 -102 -83 -5 -3 -10 -30 -12 -60 l-3 -55 -30 59 c-29 58 -29 58
-45 35 -25 -40 -74 -86 -98 -93 -12 -4 -48 -9 -80 -12 -143 -10 -211 -31 -226
-69 -7 -18 -11 -18 55 1 67 20 131 14 204 -20 52 -24 56 -24 107 -9 106 30
101 30 93 -8 -4 -19 -13 -37 -19 -41 -6 -4 -8 -8 -4 -8 10 0 -40 -132 -71
-190 -14 -26 -57 -90 -96 -143 -68 -93 -72 -96 -145 -125 -41 -17 -84 -32 -94
-34 -25 -4 -33 -26 -9 -25 15 1 64 -4 208 -19 67 -7 120 -16 127 -20 4 -3 8
-34 8 -70 0 -58 -2 -64 -20 -61 -11 2 -26 9 -32 15 -7 7 -20 12 -30 12 -14 0
-18 8 -18 36 0 21 -4 33 -10 29 -6 -3 -10 0 -10 7 -1 8 -6 6 -15 -6 -8 -10
-12 -23 -9 -27 3 -5 -2 -9 -10 -9 -8 0 -16 -10 -18 -22 -4 -31 -30 -37 -28 -7
3 37 1 44 -19 68 -11 13 -25 20 -30 16 -6 -3 -11 2 -11 12 0 15 -4 14 -20 -7
-18 -24 -18 -26 -1 -45 21 -24 34 -52 35 -80 1 -12 9 -21 21 -23 56 -8 64 -13
70 -42 4 -16 11 -30 16 -30 5 0 8 -3 7 -8 -3 -7 9 -37 48 -129 8 -17 14 -36
14 -41 0 -13 44 -62 54 -62 4 0 28 -12 53 -27 44 -26 45 -27 22 -36 -13 -5
-28 -10 -34 -11 -5 -1 -19 -7 -30 -13 -14 -8 -16 -15 -9 -25 26 -32 57 -161
57 -236 0 -42 4 -80 9 -83 5 -3 37 -5 71 -3 34 1 241 5 459 9 219 3 455 8 525
10 70 3 314 7 543 10 228 3 503 7 610 10 243 5 793 17 921 20 100 2 119 7 119
30 0 8 14 58 31 111 l31 96 56 25 c71 31 173 83 190 96 7 5 25 17 41 26 75 41
222 181 286 271 22 30 45 61 52 68 6 6 15 21 18 32 4 12 14 19 23 18 10 -2 17
4 17 14 0 10 43 59 95 109 52 51 143 139 203 196 59 58 107 109 107 113 0 5 7
13 15 17 11 6 -5 25 -68 80 -45 39 -96 84 -114 100 -39 35 -75 66 -133 117
-100 86 -176 153 -225 196 -28 25 -82 72 -120 105 -38 33 -81 71 -96 85 -15
14 -48 43 -75 65 -26 22 -55 47 -63 56 -9 9 -45 40 -81 70 -36 30 -79 68 -96
84 -17 17 -42 39 -55 49 -13 11 -62 53 -109 95 -47 41 -91 80 -98 86 -7 5 -21
17 -30 25 -9 9 -49 44 -88 78 -50 43 -78 76 -92 109 -31 73 -31 78 1 75 47 -6
30 12 -35 36 -148 55 -148 56 -149 82 -1 14 -3 43 -5 65 -2 22 -7 69 -10 105
-3 36 -10 69 -15 74 -8 9 -13 -4 -10 -26 1 -10 3 -222 2 -229 -1 -3 -37 2 -81
11 -43 9 -84 14 -91 10 -6 -4 4 -10 24 -14 44 -8 59 -26 53 -63 -2 -15 -5 -49
-5 -75 -1 -27 -6 -48 -11 -48 -6 0 -30 -9 -54 -21 l-44 -20 -44 24 c-24 13
-61 34 -83 47 -22 12 -114 64 -205 115 -91 51 -181 102 -200 113 -19 11 -60
33 -90 48 -69 35 -66 32 -52 46 16 16 16 41 0 31 -7 -4 -18 -8 -24 -9 -6 -1
-27 -9 -45 -17 -49 -23 -138 -57 -149 -57 -12 0 -3 197 11 232 9 23 7 33 -11
63 -12 19 -23 35 -24 35 -1 0 -12 -20 -23 -44z m299 -318 c14 -10 29 -18 33
-18 4 0 19 -8 33 -18 15 -11 56 -35 92 -54 62 -33 233 -130 275 -155 11 -7 30
-17 42 -22 11 -5 43 -23 69 -40 48 -29 48 -30 21 -36 -15 -4 -27 -11 -27 -16
0 -5 -7 -9 -16 -9 -9 0 -31 -7 -49 -15 -30 -15 -35 -15 -86 8 -160 72 -349
170 -344 178 10 15 -34 10 -60 -7 l-25 -16 -1 38 c-1 22 -3 53 -4 69 -14 146
-14 144 3 138 10 -4 29 -15 44 -25z m-1035 -89 c48 -28 108 -63 133 -77 25
-13 57 -33 72 -43 14 -11 29 -19 33 -19 4 0 23 -10 42 -21 39 -24 40 -24 -50
-89 -27 -19 -57 -43 -68 -52 -10 -10 -22 -18 -27 -18 -4 0 -19 -11 -33 -24
-14 -13 -35 -28 -46 -35 -19 -10 -24 -7 -40 19 -9 16 -21 30 -25 30 -4 0 -8 7
-8 15 0 7 -6 18 -13 22 -7 4 -23 24 -34 43 -18 30 -22 55 -25 168 -2 72 -3
132 -2 132 2 0 43 -23 91 -51z m630 -26 c-3 -5 -8 -46 -12 -93 -4 -47 -9 -88
-12 -92 -6 -12 1 -10 57 12 66 26 72 25 68 -7 -3 -25 -11 -31 -76 -53 l-73
-25 -46 25 c-25 13 -66 37 -90 53 l-45 28 44 31 c23 18 49 37 56 44 6 7 21 16
32 19 11 3 20 10 20 15 0 4 15 17 33 29 33 21 52 27 44 14z m302 -110 c22 -9
20 -11 -30 -32 -29 -13 -59 -24 -66 -25 -7 -1 -16 -5 -19 -9 -17 -16 -30 -5
-32 27 -2 32 0 35 35 43 44 11 79 9 112 -4z m276 -95 c205 -102 205 -102 191
-110 -13 -7 -244 -85 -276 -93 -8 -3 -25 -7 -37 -11 -22 -6 -23 -3 -37 72 -5
27 -8 94 -7 162 1 64 -7 65 166 -20z m692 29 c8 -5 9 -33 4 -105 -1 -9 -6 -10
-20 -2 -11 5 -41 15 -68 20 -26 6 -58 19 -71 28 l-23 18 63 26 c59 24 93 29
115 15z m185 -51 c19 -17 60 -53 92 -81 32 -27 73 -63 91 -80 17 -16 52 -46
76 -67 24 -20 58 -49 75 -65 17 -15 59 -53 94 -83 35 -30 68 -59 74 -65 6 -5
45 -39 86 -75 41 -36 80 -69 86 -75 6 -5 36 -31 66 -57 30 -26 66 -58 80 -70
14 -13 40 -36 59 -52 32 -28 171 -149 195 -171 23 -21 82 -72 154 -135 41 -36
77 -67 80 -70 3 -3 39 -34 80 -70 126 -109 125 -109 113 -121 -6 -6 -28 -17
-49 -24 -37 -13 -41 -12 -74 13 -36 27 -51 39 -73 57 -7 6 -32 26 -57 45 -25
19 -46 38 -48 42 -2 5 -10 8 -17 8 -7 0 -15 3 -17 8 -1 4 -23 23 -48 42 -25
19 -47 37 -50 40 -3 3 -32 25 -65 49 -33 25 -61 48 -63 53 -2 4 -10 8 -17 8
-7 0 -15 4 -17 8 -1 5 -28 27 -58 50 -30 23 -62 48 -70 55 -8 6 -46 36 -85 66
-38 30 -78 62 -88 72 -10 11 -21 19 -25 19 -4 0 -23 15 -43 33 -20 17 -53 46
-74 62 -21 17 -45 37 -54 45 -9 8 -40 35 -69 59 -38 31 -50 46 -41 52 15 9
-28 29 -62 29 -10 0 -19 3 -19 8 0 4 -18 27 -41 52 -23 25 -52 70 -66 100 -14
30 -33 72 -43 92 -10 20 -15 39 -12 42 3 3 22 3 44 0 21 -4 38 -2 38 2 0 5
-61 25 -135 44 l-135 34 0 61 0 62 49 -10 c32 -6 61 -20 83 -41z m-1625 -11
c44 -24 71 -45 68 -52 -3 -8 5 -13 21 -13 25 0 26 -2 19 -37 -4 -21 -9 -49
-11 -63 -3 -14 -13 -70 -24 -125 -23 -124 -32 -176 -33 -193 0 -8 -16 -21 -36
-30 -20 -10 -41 -22 -47 -28 -12 -11 -58 -10 -154 3 -30 4 -62 8 -70 8 -39 5
-195 107 -208 138 -2 4 -10 7 -18 7 -8 0 -14 4 -14 9 0 5 -9 11 -20 14 -17 4
-20 14 -20 55 l0 50 67 -4 c37 -3 71 -8 76 -11 18 -11 107 -14 107 -3 0 5 -7
10 -15 10 -8 0 -20 10 -26 23 -7 12 -23 35 -36 51 l-24 29 48 34 c73 52 93 66
115 86 12 9 25 17 29 17 4 0 15 8 25 18 34 33 79 59 94 53 8 -3 48 -24 87 -46z
m1293 -49 c19 -10 38 -23 41 -29 8 -12 0 -99 -10 -109 -3 -4 -42 10 -86 32
-44 22 -83 40 -87 40 -4 0 -24 10 -44 22 l-38 22 69 32 c74 34 72 34 155 -10z
m-1781 -48 c23 -32 37 -58 31 -58 -6 0 -23 -11 -38 -25 -15 -14 -31 -25 -37
-25 -6 0 -10 37 -11 91 -1 50 2 87 6 82 4 -4 26 -34 49 -65z m-139 -58 c-12
-63 -14 -66 -40 -54 -19 9 -18 11 10 53 17 24 30 49 30 54 0 6 2 8 5 5 3 -2 1
-29 -5 -58z m1762 -3 c66 -31 135 -64 154 -72 18 -7 34 -19 34 -25 0 -6 -16
-25 -36 -43 -20 -18 -48 -43 -63 -57 -22 -20 -35 -25 -74 -23 -33 2 -47 -1
-47 -11 0 -8 11 -12 30 -11 17 1 29 -1 28 -5 -2 -4 -39 -38 -83 -76 -44 -38
-81 -72 -83 -76 -3 -7 -83 32 -108 53 -8 6 -14 9 -14 5 0 -3 -17 4 -37 17 -21
13 -68 39 -105 58 -53 26 -68 39 -68 56 0 13 8 24 20 28 11 3 20 15 20 26 0
22 -4 23 -30 9 -15 -8 -21 -4 -34 24 -23 49 -21 54 27 66 23 6 49 14 57 17 8
3 20 7 26 8 19 5 219 77 234 85 20 12 19 12 152 -53z m-1704 -38 c0 -16 -4
-29 -9 -27 -6 2 -10 7 -10 11 1 4 1 16 1 27 0 33 17 23 18 -11z m182 -55 c0
-5 -65 4 -83 11 -17 7 -16 10 9 30 l29 23 22 -31 c13 -17 23 -32 23 -33z
m-190 -48 c0 -45 -3 -54 -20 -59 -33 -8 -33 -3 -4 101 2 6 8 12 14 12 5 0 10
-24 10 -54z m2215 28 c19 -7 71 -57 105 -100 8 -11 22 -28 30 -38 14 -18 6
-19 -117 -2 -7 1 -29 29 -49 62 -61 100 -59 95 -22 90 18 -2 42 -8 53 -12z
m-1084 -21 c69 -25 71 -27 46 -36 -22 -7 -40 -3 -92 22 -36 18 -65 34 -65 36
0 12 44 3 111 -22z m908 -28 c1 -39 -2 -55 -11 -56 -50 -4 -151 -3 -164 1 -25
9 99 105 139 108 l34 2 2 -55z m-1022 3 c57 -30 74 -48 46 -48 -17 0 -43 17
-97 63 -26 23 -15 19 51 -15z m1112 -28 c3 -3 12 -15 19 -27 11 -22 10 -23
-20 -20 -33 2 -33 3 -35 57 l-3 55 16 -30 c10 -16 20 -32 23 -35z m-1155 -57
c-53 -22 -62 -18 -59 30 2 23 4 44 4 45 1 2 20 -11 43 -29 l41 -33 -29 -13z
m-138 -18 c-2 -7 -46 -27 -96 -43 -103 -35 -103 -33 -15 51 27 26 64 51 80 56
28 7 30 5 33 -22 2 -16 1 -35 -2 -42z m-693 -68 c91 -74 201 -104 390 -106
l68 -1 -6 -36 c-3 -20 -7 -39 -9 -43 -3 -4 -7 -25 -9 -46 -3 -22 -14 -92 -26
-155 -11 -63 -22 -128 -25 -145 -3 -16 -7 -41 -11 -55 -3 -14 -8 -43 -11 -65
-22 -150 -22 -150 -77 -43 -26 51 -57 111 -69 133 -40 77 -40 72 -6 84 17 6
39 11 48 11 10 0 23 6 29 13 8 11 -9 40 -79 133 -50 65 -106 143 -126 172 -20
28 -39 52 -43 52 -4 0 -15 15 -26 33 -10 17 -33 50 -52 73 -34 42 -45 68 -18
40 9 -8 35 -30 58 -49z m1330 -75 c40 -21 45 -27 35 -41 -20 -25 -52 -50 -64
-51 -6 0 -56 34 -112 76 -95 71 -102 79 -102 110 l0 35 98 -52 c53 -28 118
-63 145 -77z m305 -51 l-3 -59 -35 18 c-19 10 -56 29 -82 42 -27 12 -48 26
-48 29 0 4 26 28 58 55 31 26 68 59 82 72 l25 24 3 -61 c2 -33 2 -88 0 -120z
m722 107 c13 -24 28 -47 32 -53 13 -15 172 -230 183 -247 6 -9 26 -40 47 -69
71 -105 137 -257 152 -353 3 -20 10 -54 15 -76 13 -59 13 -58 -82 54 -23 28
-53 62 -67 76 -14 14 -46 51 -72 81 -76 88 -96 111 -151 172 -60 67 -64 74
-71 108 -2 13 -11 58 -20 99 -54 250 -54 250 -13 250 17 0 30 -11 47 -42z
m-2528 -69 c1 -41 -4 -90 -9 -109 -6 -19 -17 -65 -23 -102 -14 -76 -8 -73
-110 -58 -137 21 -132 19 -116 36 9 8 55 65 103 127 48 62 90 114 93 117 3 3
16 20 29 38 13 18 25 31 27 29 2 -2 5 -37 6 -78z m170 -153 c43 -83 78 -154
78 -158 0 -7 -21 -6 -120 7 -79 11 -77 7 -79 93 -1 42 -2 93 -3 112 0 19 3 60
7 90 8 53 8 54 24 31 9 -13 51 -92 93 -175z m-318 127 c-15 -21 -34 -42 -41
-46 -7 -4 -13 -15 -13 -22 0 -8 -4 -15 -8 -15 -5 0 -24 -21 -43 -47 -58 -82
-70 -93 -95 -87 -12 3 -25 1 -28 -5 -10 -15 28 -45 107 -85 76 -38 133 -49
181 -35 l28 8 -7 -45 c-3 -25 -9 -56 -12 -67 -2 -12 -6 -31 -7 -42 -2 -11 -6
-28 -10 -37 -12 -27 -2 -53 21 -56 27 -4 43 -22 49 -57 3 -20 1 -25 -8 -19
-15 9 -84 61 -113 85 -80 68 -105 89 -145 119 -25 19 -49 40 -55 45 -5 6 -40
35 -77 65 -60 47 -84 80 -60 80 5 0 22 12 39 28 17 15 53 46 80 68 26 23 58
50 69 60 12 11 48 42 80 69 32 28 65 57 74 66 27 28 24 11 -6 -28z m1506 -33
l38 -35 -9 -60 c-4 -33 -10 -73 -13 -90 -2 -16 -5 -41 -5 -55 -1 -22 -3 -20
-20 15 -30 62 -61 161 -85 268 l-7 29 31 -19 c18 -10 49 -34 70 -53z m-1072
-124 c45 -61 89 -119 97 -128 14 -16 12 -18 -13 -18 -56 0 -66 10 -107 93 -21
45 -51 102 -65 127 -14 25 -31 59 -38 75 l-13 30 28 -34 c15 -19 65 -84 111
-145z m1399 99 c43 -22 80 -43 83 -46 3 -3 13 -8 22 -12 12 -4 16 -15 13 -39
-2 -18 -4 -59 -4 -91 -1 -57 -1 -57 -23 -46 -19 10 -127 87 -163 117 -5 4 -26
19 -45 32 -62 44 -63 50 -17 92 23 21 45 37 49 35 3 -1 42 -20 85 -42z m-1792
-219 l60 -13 -48 -8 c-52 -8 -126 6 -161 31 -19 14 -17 15 34 9 30 -4 82 -12
115 -19z m337 -32 c36 -5 59 -31 38 -44 -21 -13 -90 -1 -130 21 -72 41 -55 45
92 23z m-207 -21 c-1 -20 -7 -29 -22 -31 -18 -3 -20 1 -16 20 6 21 20 37 34
38 3 0 5 -12 4 -27z m325 7 c0 -5 -4 -10 -10 -10 -5 0 -10 5 -10 10 0 6 5 10
10 10 6 0 10 -4 10 -10z m2050 0 c0 -3 16 -56 34 -117 l33 -113 -96 -1 c-53 0
-120 -1 -149 -2 l-52 -2 0 37 c0 33 3 37 28 40 21 2 27 8 27 28 1 16 -6 27
-19 30 -14 4 -20 16 -22 52 -3 42 -2 47 19 50 36 5 197 3 197 -2z m-2289 -42
c45 -27 61 -31 127 -32 l75 -1 63 -124 c35 -68 68 -129 73 -135 16 -20 24 -66
11 -66 -12 0 -83 -50 -88 -62 -7 -15 -26 -7 -81 34 -31 23 -58 45 -61 48 -3 4
-20 15 -37 25 -18 11 -33 23 -33 27 0 4 -7 8 -15 8 -8 0 -15 3 -15 8 0 4 -13
16 -29 26 -25 17 -27 22 -15 34 18 18 18 42 -1 42 -12 0 -15 15 -15 75 0 89 0
86 -11 108 -13 23 -7 22 52 -15z m1897 -65 c-3 -46 -2 -47 27 -49 60 -2 61 -3
61 -33 -1 -16 -4 -33 -9 -37 -9 -9 -287 -12 -287 -3 0 20 96 110 147 137 32
17 59 32 61 32 2 0 2 -21 0 -47z m-213 16 c2 -9 -2 -45 -9 -80 l-11 -64 -58 0
c-40 1 -57 -3 -57 -12 0 -7 0 -16 0 -20 0 -4 34 -8 76 -9 77 -2 93 -10 100
-49 1 -5 8 -30 17 -55 22 -68 37 -190 40 -344 3 -100 11 -121 40 -98 14 11
108 39 160 47 36 6 37 6 38 -27 0 -18 2 -41 4 -50 2 -10 -3 -21 -10 -25 -7 -5
-15 -15 -17 -23 -2 -8 -7 -18 -12 -21 -14 -10 -47 30 -49 59 -3 30 -20 33 -25
5 -7 -40 -12 -49 -22 -33 -5 8 -6 18 -3 23 3 5 -3 7 -13 5 -11 -2 -25 -21 -35
-48 -18 -49 -39 -64 -39 -28 0 13 -4 29 -9 37 -7 11 -14 8 -32 -13 -20 -22
-30 -26 -81 -26 -55 0 -76 11 -44 23 12 5 12 11 3 31 -15 32 -27 24 -27 -20 0
-33 -1 -34 -41 -34 -22 0 -38 4 -35 9 3 4 -2 17 -10 27 -14 17 -15 17 -10 2 4
-13 0 -18 -14 -18 -10 0 -22 -5 -25 -10 -4 -6 -10 -8 -14 -5 -5 2 -50 6 -102
7 -92 3 -94 3 -133 40 -28 26 -43 33 -48 25 -5 -7 0 -19 12 -29 27 -22 26 -24
-20 -20 -31 3 -40 1 -40 -11 0 -8 7 -17 15 -21 19 -7 20 -26 1 -26 -8 0 -16
-7 -20 -15 -3 -8 -12 -12 -20 -9 -11 4 -14 -1 -12 -20 2 -15 -1 -29 -7 -33 -9
-5 -78 -7 -159 -4 -13 1 -18 9 -18 31 0 17 -5 30 -11 30 -5 0 -8 4 -5 9 9 14
-4 41 -20 41 -15 0 -15 1 -18 73 -1 27 2 51 8 54 42 27 378 54 411 34 6 -3 12
-6 15 -7 7 -1 37 -13 92 -35 76 -31 80 -29 72 44 -3 34 -10 69 -15 78 -4 9 -6
19 -3 22 3 3 1 38 -5 79 -6 40 -13 98 -16 128 -6 63 -14 124 -25 193 -7 48 -4
53 36 48 6 -1 9 11 6 30 -4 30 -5 30 -51 24 l-47 -6 -12 37 c-6 21 -10 40 -8
42 2 2 19 6 38 9 18 3 51 8 73 12 22 4 89 7 149 7 92 -1 109 -4 111 -17z
m-1815 -65 c0 -48 -3 -65 -12 -61 -12 3 -13 22 -3 72 2 11 4 28 4 38 1 9 3 17
6 17 3 0 5 -30 5 -66z m1317 -27 c28 -8 53 -14 55 -13 2 0 1 -2 -2 -6 -5 -6
-218 -55 -275 -63 -16 -3 -42 -7 -57 -11 -23 -4 -28 -2 -33 19 -4 14 -5 38 -3
53 2 24 9 30 38 35 60 9 223 1 277 -14z m-456 -49 c-1 -5 -1 -21 -1 -37 0 -26
-5 -30 -47 -42 -27 -7 -55 -13 -63 -14 -8 -1 -36 -10 -62 -18 -26 -9 -62 -19
-80 -22 l-33 -5 25 21 c55 45 79 60 145 92 68 34 117 44 116 25z m-769 -88
c12 -11 68 -52 123 -92 113 -82 120 -89 101 -103 -8 -5 -49 -35 -92 -65 -42
-30 -86 -63 -96 -72 -10 -10 -18 -15 -18 -11 0 3 -11 -4 -25 -17 -14 -13 -25
-19 -26 -14 0 5 -2 76 -3 159 -3 118 0 152 11 163 12 12 12 17 -1 37 -8 12
-12 25 -9 29 9 8 8 8 35 -14z m392 -160 c-30 -55 -35 -58 -55 -34 -11 14 -10
19 11 35 14 10 32 25 40 33 29 28 31 15 4 -34z m3146 31 c0 -6 -7 -11 -16 -11
-9 0 -30 -7 -47 -15 -60 -27 -169 -65 -189 -65 -11 0 -64 -18 -118 -41 -108
-45 -106 -45 -144 13 -18 27 -18 28 0 34 11 3 26 9 34 13 39 20 170 54 248 65
124 16 232 19 232 7z m-76 -146 c-82 -79 -152 -145 -155 -145 -4 0 -6 38 -5
85 0 47 4 84 7 83 3 -2 13 3 21 10 9 7 40 19 69 28 30 9 59 19 64 24 6 4 27
13 48 20 22 7 51 18 65 26 15 8 29 14 31 14 2 0 -63 -65 -145 -145z m-749 114
c22 -5 51 -12 65 -15 30 -5 42 -10 140 -58 41 -19 86 -44 99 -55 l24 -19 -49
-21 c-27 -13 -57 -23 -66 -24 -10 -1 -18 -4 -18 -8 0 -10 -88 -32 -102 -25 -7
3 -31 17 -53 31 -22 14 -47 28 -55 31 -12 6 -119 68 -139 81 -5 3 -10 87 -5
94 5 8 107 0 159 -12z m-2257 -94 c-2 -18 -7 -22 -17 -16 -11 7 -11 15 0 47
11 32 14 35 17 17 2 -13 2 -34 0 -48z m-142 22 l27 -23 -92 -165 c-50 -90 -95
-171 -100 -179 -11 -20 -42 -25 -52 -9 -6 11 -11 11 -21 1 -14 -14 -32 -16
-23 -3 10 17 -11 21 -31 6 -28 -21 -34 -18 -34 15 0 17 5 30 10 30 6 0 10 9
10 20 0 11 -4 20 -9 20 -10 0 -23 34 -25 66 -1 20 49 62 184 157 14 9 45 33
70 51 25 19 48 35 52 35 4 1 19 -9 34 -22z m2960 -140 l4 -73 -82 -114 c-94
-131 -196 -238 -287 -299 -73 -50 -240 -135 -248 -127 -10 10 19 48 132 171
68 73 85 91 189 190 69 66 101 125 119 217 l11 58 75 29 c42 16 78 28 80 25 2
-2 6 -37 7 -77z m-661 47 c97 -54 159 -94 146 -94 -8 0 -11 -6 -7 -16 4 -11
-5 -19 -32 -30 -20 -8 -50 -21 -67 -29 -33 -15 -85 -29 -86 -24 -4 24 -9 219
-5 219 3 0 26 -12 51 -26z m-2167 -4 c12 -12 22 -28 23 -38 0 -9 2 -26 4 -37
2 -11 6 -49 10 -85 4 -36 9 -67 11 -69 2 -3 29 3 60 13 30 9 65 19 77 22 34 7
141 24 150 24 12 0 8 -105 -5 -122 -25 -30 -47 -29 -63 2 -9 17 -20 30 -26 30
-6 0 -6 -7 1 -20 6 -11 9 -20 8 -21 -35 -13 -139 5 -135 23 4 23 -34 19 -57
-5 -21 -22 -28 -24 -102 -20 -82 4 -104 5 -104 8 0 4 42 117 54 148 9 20 13
37 10 37 -4 0 -2 6 3 13 6 6 16 30 22 52 7 22 14 46 16 53 6 17 18 15 43 -8z
m-96 -22 c-5 -7 -24 -58 -42 -113 -18 -55 -37 -106 -43 -112 -5 -7 -6 -13 -3
-13 4 0 2 -8 -3 -18 -11 -20 -68 -24 -64 -5 1 5 23 47 50 94 26 46 57 102 68
124 18 36 33 54 44 55 2 0 -1 -6 -7 -12z m-1148 -12 c45 -6 50 -9 52 -41 1
-18 -4 -22 -20 -20 -42 6 -112 15 -171 21 -33 3 -61 7 -63 9 -1 1 23 11 55 22
57 19 71 20 147 9z m182 -21 c9 -3 10 -13 5 -57 -1 -4 -15 -3 -31 2 -33 10
-36 10 -50 10 -11 0 -14 43 -4 52 5 6 56 1 80 -7z m184 -19 c122 -12 210 -25
225 -34 6 -4 15 -7 20 -7 6 0 25 -4 43 -9 40 -10 32 -26 -14 -26 -19 0 -34 -4
-34 -9 0 -5 -16 -5 -37 -1 -21 5 -67 11 -103 14 -36 3 -76 7 -90 9 -14 2 -50
8 -80 12 -59 8 -70 16 -63 46 6 20 30 29 53 19 8 -4 44 -10 80 -14z m3489 -8
c-6 -18 -11 -37 -13 -43 -12 -54 -106 -175 -135 -175 -7 0 -9 4 -6 10 8 13 15
44 22 98 7 50 -10 56 -47 16 -20 -20 -99 -64 -117 -64 -2 0 -3 16 -1 35 3 39
-4 34 168 107 25 10 59 25 75 33 17 7 38 14 47 14 14 1 15 -4 7 -31z m-678
-38 c64 -15 173 -70 162 -81 -7 -7 -137 -59 -148 -59 -3 0 -2 16 1 35 4 30 2
35 -14 35 -17 0 -20 -6 -17 -39 3 -33 -1 -40 -21 -50 -32 -14 -31 -14 -31 7 0
34 -3 38 -30 36 -19 -1 -27 -6 -24 -15 2 -8 6 -27 9 -43 4 -26 3 -27 -16 -17
-11 6 -23 22 -26 36 -7 28 -31 32 -60 10 -24 -18 -36 -11 -36 20 0 13 -5 25
-11 27 -10 3 -14 44 -10 95 1 6 13 13 29 15 54 7 190 0 243 -12z m-2993 -10
c7 0 12 -14 12 -34 0 -30 -2 -33 -25 -28 -21 4 -26 0 -31 -27 -4 -17 -13 -31
-20 -31 -16 0 -15 -3 -19 73 l-2 58 36 -5 c20 -3 42 -5 49 -6z m137 -17 c22
-1 69 -7 105 -13 36 -5 90 -12 120 -15 30 -4 55 -7 56 -8 1 -1 7 -26 12 -54 8
-46 7 -53 -7 -53 -29 0 -44 18 -45 53 -1 41 -8 40 -29 -6 -15 -31 -19 -33 -64
-31 -65 2 -63 2 -63 19 0 11 -8 15 -27 13 -17 -2 -27 2 -26 9 1 6 -4 14 -12
17 -9 3 -15 0 -15 -9 0 -9 -9 -13 -27 -11 -18 1 -27 7 -25 17 3 11 1 12 -9 2
-21 -21 -26 -15 -27 29 -2 41 12 63 33 50 5 -4 28 -8 50 -9z m3205 -67 c0 -30
-4 -35 -31 -41 -24 -6 -34 -3 -41 9 -5 9 -13 14 -19 11 -5 -4 -9 0 -9 8 0 7
21 21 48 29 26 9 48 17 50 17 1 1 2 -14 2 -33z m-1360 -146 c0 -24 -4 -28 -35
-32 -43 -5 -51 0 -50 32 0 19 6 26 30 30 43 9 55 2 55 -30z m114 24 c13 -34
-1 -49 -46 -52 -44 -3 -46 -2 -50 27 -2 17 0 32 6 34 24 8 86 1 90 -9z m114
-22 c3 -32 3 -32 -41 -32 -52 0 -55 2 -49 38 3 25 7 27 45 27 40 0 42 -2 45
-33z m93 16 c14 -22 4 -33 -34 -36 -35 -3 -37 -1 -37 25 0 26 3 29 31 27 18
-1 36 -8 40 -16z m-2452 -24 c25 -1 64 -3 86 -4 l40 -1 -30 -16 c-30 -17 -39
-17 -123 -10 -49 4 -75 23 -52 37 8 5 18 6 23 3 5 -3 30 -7 56 -9z m186 -33
c-4 -15 -15 -21 -36 -21 -37 0 -36 3 3 28 37 24 43 22 33 -7z m55 12 c0 -14 2
-15 9 -5 6 11 15 10 44 -4 21 -10 37 -20 37 -24 0 -5 -44 -6 -65 -1 -5 2 -25
2 -43 1 -30 -1 -33 0 -23 18 6 11 7 22 4 26 -3 3 3 6 15 6 14 0 22 -6 22 -17z
m370 -18 c8 -5 8 -10 -1 -21 -6 -7 -14 -12 -18 -9 -4 2 -54 6 -110 9 -70 4
-109 11 -124 22 -20 14 -12 15 110 11 72 -3 136 -8 143 -12z m-270 -64 c0 -31
-10 -47 -27 -45 -7 1 -17 2 -23 3 -15 2 -12 69 3 74 26 8 47 -5 47 -32z m-162
-7 c2 -32 0 -34 -28 -34 -28 0 -30 3 -30 34 0 31 3 35 28 34 25 -1 28 -5 30
-34z m72 -1 c0 -35 -7 -44 -30 -34 -9 3 -15 20 -16 38 0 28 3 32 23 31 19 -2
23 -8 23 -35z m2897 -92 c2 -44 -1 -46 -100 -56 l-58 -7 4 37 c3 19 6 37 8 39
2 2 33 7 69 11 36 4 67 9 69 11 2 2 5 4 6 4 0 0 1 -18 2 -39z m-265 -32 c3
-16 2 -33 -1 -38 -3 -5 -40 -11 -83 -14 -74 -5 -76 -4 -81 18 -6 35 2 41 73
51 91 13 88 14 92 -17z m-282 -36 c0 -31 -2 -33 -37 -34 -105 -5 -98 -7 -101
33 l-3 37 70 -1 71 -1 0 -34z m-270 -8 c0 -34 -1 -35 -37 -36 -21 0 -50 -2
-65 -4 -17 -2 -28 1 -29 8 -4 42 -3 53 3 57 3 3 34 6 67 8 l61 2 0 -35z
m-1379 10 c1 -8 2 -23 3 -32 1 -13 -7 -18 -30 -19 -28 -1 -30 1 -30 33 1 29 4
33 28 33 18 0 28 -6 29 -15z m139 -22 c0 -30 -3 -33 -28 -33 -36 0 -39 4 -34
39 3 25 8 29 33 29 26 -1 29 -4 29 -35z m110 -3 c0 -29 -19 -44 -45 -34 -8 4
-15 19 -15 34 0 22 5 29 23 32 31 6 37 1 37 -32z m112 31 c10 -1 7 -61 -4 -62
-4 -1 -15 -1 -23 -1 -29 0 -32 2 -30 26 4 35 12 45 33 41 9 -2 20 -4 24 -4z
m431 0 c5 -1 7 -16 5 -33 -3 -33 -3 -33 -58 -33 -54 0 -55 0 -58 32 -2 24 1
32 15 35 15 3 69 3 96 -1z m304 -28 c3 -35 3 -35 -87 -35 -37 0 -39 2 -37 36
l2 35 60 -2 60 -2 2 -32z"/>
</g>
</svg>
